/* XPM */
static const char * atomic_xpm[] = {
"32 32 181 2",
"  	g None",
". 	g #BABABA",
"+ 	g #6C6C6C",
"@ 	g #6B6B6B",
"# 	g #B5B5B5",
"$ 	g #5A5A5A",
"% 	g #000000",
"& 	g #0A0A0A",
"* 	g #414141",
"= 	g #585858",
"- 	g #101010",
"; 	g #9D9D9D",
"> 	g #AAAAAA",
", 	g #191919",
"' 	g #343434",
") 	g #0D0D0D",
"! 	g #DFDFDF",
"~ 	g #1D1D1D",
"{ 	g #747474",
"] 	g #0B0B0B",
"^ 	g #DEDEDE",
"/ 	g #E5E5E5",
"( 	g #989898",
"_ 	g #4B4B4B",
": 	g #848484",
"< 	g #4C4C4C",
"[ 	g #EBEBEB",
"} 	g #ECECEC",
"| 	g #BCBCBC",
"1 	g #9F9F9F",
"2 	g #8B8B8B",
"3 	g #838383",
"4 	g #8E8E8E",
"5 	g #9A9A9A",
"6 	g #AFAFAF",
"7 	g #C8C8C8",
"8 	g #AEAEAE",
"9 	g #939393",
"0 	g #858585",
"a 	g #797979",
"b 	g #6E6E6E",
"c 	g #8C8C8C",
"d 	g #CECECE",
"e 	g #1F1F1F",
"f 	g #3D3D3D",
"g 	g #535353",
"h 	g #636363",
"i 	g #767676",
"j 	g #1A1A1A",
"k 	g #828282",
"l 	g #878787",
"m 	g #909090",
"n 	g #C4C4C4",
"o 	g #8F8F8F",
"p 	g #808080",
"q 	g #4D4D4D",
"r 	g #2C2C2C",
"s 	g #818181",
"t 	g #686868",
"u 	g #2E2E2E",
"v 	g #151515",
"w 	g #2F2F2F",
"x 	g #010101",
"y 	g #D6D6D6",
"z 	g #959595",
"A 	g #C9C9C9",
"B 	g #A2A2A2",
"C 	g #929292",
"D 	g #616161",
"E 	g #5B5B5B",
"F 	g #A6A6A6",
"G 	g #D2D2D2",
"H 	g #DCDCDC",
"I 	g #252525",
"J 	g #D5D5D5",
"K 	g #565656",
"L 	g #ADADAD",
"M 	g #B7B7B7",
"N 	g #3F3F3F",
"O 	g #E6E6E6",
"P 	g #949494",
"Q 	g #777777",
"R 	g #454545",
"S 	g #7A7A7A",
"T 	g #E8E8E8",
"U 	g #060606",
"V 	g #070707",
"W 	g #FFFFFF",
"X 	g #A4A4A4",
"Y 	g #595959",
"Z 	g #8D8D8D",
"` 	g #C3C3C3",
" .	g #CCCCCC",
"..	g #A1A1A1",
"+.	g #6D6D6D",
"@.	g #787878",
"#.	g #313131",
"$.	g #1B1B1B",
"%.	g #5F5F5F",
"&.	g #E3E3E3",
"*.	g #040404",
"=.	g #4F4F4F",
"-.	g #7F7F7F",
";.	g #C7C7C7",
">.	g #B6B6B6",
",.	g #353535",
"'.	g #0C0C0C",
").	g #BDBDBD",
"!.	g #DADADA",
"~.	g #272727",
"{.	g #9B9B9B",
"].	g #CBCBCB",
"^.	g #646464",
"/.	g #7E7E7E",
"(.	g #BFBFBF",
"_.	g #E9E9E9",
":.	g #282828",
"<.	g #A0A0A0",
"[.	g #0E0E0E",
"}.	g #363636",
"|.	g #050505",
"1.	g #080808",
"2.	g #494949",
"3.	g #707070",
"4.	g #505050",
"5.	g #4A4A4A",
"6.	g #2D2D2D",
"7.	g #D3D3D3",
"8.	g #919191",
"9.	g #020202",
"0.	g #3B3B3B",
"a.	g #262626",
"b.	g #E4E4E4",
"c.	g #464646",
"d.	g #B3B3B3",
"e.	g #484848",
"f.	g #7B7B7B",
"g.	g #B2B2B2",
"h.	g #999999",
"i.	g #1C1C1C",
"j.	g #383838",
"k.	g #757575",
"l.	g #717171",
"m.	g #575757",
"n.	g #DDDDDD",
"o.	g #B4B4B4",
"p.	g #545454",
"q.	g #C5C5C5",
"r.	g #D1D1D1",
"s.	g #A7A7A7",
"t.	g #ABABAB",
"u.	g #3E3E3E",
"v.	g #515151",
"w.	g #666666",
"x.	g #A3A3A3",
"y.	g #696969",
"z.	g #3A3A3A",
"A.	g #232323",
"B.	g #424242",
"C.	g #BEBEBE",
"D.	g #090909",
"E.	g #6F6F6F",
"F.	g #D7D7D7",
"G.	g #161616",
"H.	g #898989",
"I.	g #8A8A8A",
"J.	g #CACACA",
"K.	g #DBDBDB",
"L.	g #525252",
"M.	g #5D5D5D",
"N.	g #727272",
"O.	g #7D7D7D",
"P.	g #C2C2C2",
"Q.	g #323232",
"R.	g #676767",
"S.	g #606060",
"T.	g #B1B1B1",
"U.	g #444444",
"V.	g #A9A9A9",
"W.	g #0F0F0F",
"X.	g #030303",
"                            . + @ #                             ",
"                          $ % & & % *                           ",
"                        = - ;     > , '                         ",
"                      > ) !           ~ {                       ",
"                      ] .             ^ ] /                     ",
"                    ( _                 : <       [ }           ",
"      | 1 2 3 4 5 6 ] .                 7 % 8 9 0 a b @ c |     ",
"  d $ e f g h + + i j k l m n     7 o p p q r s m 9 3 t u v a   ",
"  w x 9 y         > z A B C + = D E m F G H I           J K % L ",
"M % 4             N O     P * @ Q R S T     %               U $ ",
"1 %               V W X Y Z `      ...+.@.  #.              $.%.",
"J % &.            *.=.-.;.            J L = #.>.            % B ",
"  ,.+           5 '.).                    !.l ~.!.        {.U   ",
"  ].%         ^.^.q           C /.(.        _.) :.<.      [.F   ",
"    p }.    N 4 !.Q         ~ V |.1.a         &   2.3.  4.K     ",
"      5.%.6.>   7.8.      D % % % % 9.        |.    $ 0.a.      ",
"      b.% c.    G C       c.% % % % %         9.    d.) =       ",
"      w k e.a   &.f.      g.9.% % 9.r         9.  h.i.  j.k.    ",
"    @.*     l.m.n.<         h.a.j _ [         ] k.N       [.o.  ",
"  G %         B ' j                         7 ] +.        6 '.  ",
"  q p.          &.% p q.                r.o 6.=.            v z ",
"  % L             [.s.Y Z |         7.{.Y @.t.>             4.u.",
"J % L             v.&.  9 w.C # r.x.@.y.r.  =.[             z.A.",
"} % B.            7 k     C.z.i.b D.@.      1.            >.% ^.",
"  E.% E 8 F.[   O J G.4 +.k.l ; ).h.H./.f.I.% | J. .).<.+ ) f K.",
"    m u.z.B.5.L.M.N.] O.<.q.        T P.s.Q.K -.N.R.S.Y K 4 F.  ",
"      H ` >.T.o.). .B U.                  - O n.G ].d F.T       ",
"                      [.J.              f.*                     ",
"                      V.v             G V /                     ",
"                        z.'         J ) -.                      ",
"                          a.W.i ( %.X.4.                        ",
"                            w.1.*.W.l                           "};
