/* XPM */
static const char * eye_xpm[] = {
"32 32 129 2",
"  	c None",
". 	c #151617",
"+ 	c #0E0F11",
"@ 	c #0D0E10",
"# 	c #141416",
"$ 	c #141517",
"% 	c #161718",
"& 	c #151618",
"* 	c #0C0D0F",
"= 	c #101112",
"- 	c #141516",
"; 	c #111213",
"> 	c #161618",
", 	c #161719",
"' 	c #131416",
") 	c #18181A",
"! 	c #0F1012",
"~ 	c #191A1B",
"{ 	c #1A1A1B",
"] 	c #1B1B1D",
"^ 	c #19191B",
"/ 	c #1A1B1C",
"( 	c #0F1011",
"_ 	c #060708",
": 	c #373839",
"< 	c #1F1F21",
"[ 	c #08090B",
"} 	c #0A0B0D",
"| 	c #0B0C0E",
"1 	c #1C1C1E",
"2 	c #151517",
"3 	c #111113",
"4 	c #464748",
"5 	c #989899",
"6 	c #D9D9D9",
"7 	c #FDFDFD",
"8 	c #BABBBB",
"9 	c #040406",
"0 	c #090A0C",
"a 	c #707071",
"b 	c #696A6B",
"c 	c #18191A",
"d 	c #151516",
"e 	c #1E1E20",
"f 	c #343435",
"g 	c #909091",
"h 	c #E8E8E8",
"i 	c #FFFFFF",
"j 	c #F8F8F8",
"k 	c #707173",
"l 	c #000002",
"m 	c #101113",
"n 	c #8A8B8C",
"o 	c #F6F6F6",
"p 	c #A4A4A4",
"q 	c #4A4A4C",
"r 	c #171718",
"s 	c #1C1C1D",
"t 	c #646566",
"u 	c #CECECF",
"v 	c #FEFEFE",
"w 	c #F7F7F7",
"x 	c #6B6B6C",
"y 	c #AAAAAB",
"z 	c #F5F5F5",
"A 	c #A8A8A8",
"B 	c #121314",
"C 	c #171819",
"D 	c #111214",
"E 	c #0C0D0E",
"F 	c #484949",
"G 	c #9B9B9C",
"H 	c #D2D2D2",
"I 	c #EBEBEB",
"J 	c #BEBEBE",
"K 	c #040507",
"L 	c #050608",
"M 	c #525355",
"N 	c #FBFCFB",
"O 	c #DEDFDF",
"P 	c #A1A2A2",
"Q 	c #3F4041",
"R 	c #000000",
"S 	c #000001",
"T 	c #202021",
"U 	c #6B6C6C",
"V 	c #9D9D9E",
"W 	c #C1C2C2",
"X 	c #DADADA",
"Y 	c #F0F0F0",
"Z 	c #B5B4B5",
"` 	c #565758",
" .	c #4B4C4E",
"..	c #6F7071",
"+.	c #C5C5C6",
"@.	c #C0C0C0",
"#.	c #7F8080",
"$.	c #2E2F30",
"%.	c #000103",
"&.	c #010204",
"*.	c #29292B",
"=.	c #505052",
"-.	c #6A6B6C",
";.	c #7E7E7F",
">.	c #929293",
",.	c #A4A4A5",
"'.	c #969796",
").	c #767777",
"!.	c #777879",
"~.	c #525354",
"{.	c #18191B",
"].	c #1B1C1C",
"^.	c #161717",
"/.	c #0F0F11",
"(.	c #101012",
"_.	c #0D0E0F",
":.	c #121315",
"<.	c #222224",
"[.	c #121416",
"}.	c #17181A",
"|.	c #0C0D10",
"1.	c #151718",
"2.	c #0B0C0D",
"3.	c #101011",
"4.	c #1A1A1C",
"5.	c #131415",
"6.	c #1D1E1F",
"7.	c #191A1C",
"8.	c #171719",
"                                                                ",
"                                                                ",
"                                                                ",
"                                                                ",
"                                                                ",
"                                                                ",
"                      . + @ # $ % & & # * =                     ",
"                - * ; % >                 , # @ '               ",
"          ) ! # ,               ~ ~             { . * $         ",
"    ] ^ /             ( _ ; : < [ } } } | +             1 , 2   ",
"                - 3 4 5 6 7 8 9 0 0 0 0 $ a b c d               ",
"          e c f g h i i i j k l } } } 0 m n i o p q r % ~       ",
"  s # @ * t u i i i v v i w x l 0 } } 0 , y i i i z A ' } B d   ",
"  C D ~ E F G H I i i i i v J , K L K ! M N j O P Q R           ",
"            S T U V W X Y i i Z ` 4  ...+.@.#.$.%.              ",
"                  &.*.=.-.;.>.,.'.).!.#.~.- S } {.              ",
"                          R K > ].^.    /.(.    ~               ",
"                                        -       +               ",
"                                      B         | _.:.. ~       ",
"                                    !           } 0 | !         ",
"      :.! $ | ]                   /.            } } }           ",
"      -     <.m                 m               | 0 C           ",
"    2     _.0 } $             [.}.              | *             ",
"    c     |.} *             - 1.                2./             ",
"    ' D     3.,         4.D                     (               ",
"      5.$           $ % (.                      6.              ",
"        2 c 7./ ^ 8.D                                           ",
"                                                                ",
"                                                                ",
"                                                                ",
"                                                                ",
"                                                                "};
