/* XPM */
static const char * save_xpm[] = {
"32 32 165 2",
"  	g None",
". 	g #2A2A2A",
"+ 	g #292929",
"@ 	g #282828",
"# 	g #5B5B5B",
"$ 	g #626262",
"% 	g #636363",
"& 	g #646464",
"* 	g #656565",
"= 	g #666666",
"- 	g #676767",
"; 	g #686868",
"> 	g #696969",
", 	g #6A6A6A",
"' 	g #6B6B6B",
") 	g #191919",
"! 	g #1B1B1B",
"~ 	g #272727",
"{ 	g #252525",
"] 	g #A2A2A2",
"^ 	g #B3B3B3",
"/ 	g #B6B6B6",
"( 	g #B8B8B8",
"_ 	g #B9B9B9",
": 	g #BBBBBB",
"< 	g #BCBCBC",
"[ 	g #BEBEBE",
"} 	g #BFBFBF",
"| 	g #C1C1C1",
"1 	g #C3C3C3",
"2 	g #C5C5C5",
"3 	g #C6C6C6",
"4 	g #C7C7C7",
"5 	g #C9C9C9",
"6 	g #CBCBCB",
"7 	g #CCCCCC",
"8 	g #CECECE",
"9 	g #CFCFCF",
"0 	g #D1D1D1",
"a 	g #D2D2D2",
"b 	g #D4D4D4",
"c 	g #D6D6D6",
"d 	g #D8D8D8",
"e 	g #D9D9D9",
"f 	g #141414",
"g 	g #4D4D4D",
"h 	g #8E8E8E",
"i 	g #9F9F9F",
"j 	g #B5B5B5",
"k 	g #BDBDBD",
"l 	g #C0C0C0",
"m 	g #C8C8C8",
"n 	g #CACACA",
"o 	g #D0D0D0",
"p 	g #D3D3D3",
"q 	g #D5D5D5",
"r 	g #DBDBDB",
"s 	g #848484",
"t 	g #454545",
"u 	g #5F5F5F",
"v 	g #DDDDDD",
"w 	g #9E9E9E",
"x 	g #DADADA",
"y 	g #DCDCDC",
"z 	g #DEDEDE",
"A 	g #E2E2E2",
"B 	g #585858",
"C 	g #333333",
"D 	g #4B4B4B",
"E 	g #3D3D3D",
"F 	g #A4A4A4",
"G 	g #A6A6A6",
"H 	g #A7A7A7",
"I 	g #A9A9A9",
"J 	g #AAAAAA",
"K 	g #ACACAC",
"L 	g #ADADAD",
"M 	g #AFAFAF",
"N 	g #B0B0B0",
"O 	g #B1B1B1",
"P 	g #B4B4B4",
"Q 	g #B7B7B7",
"R 	g #BABABA",
"S 	g #DFDFDF",
"T 	g #2C2C2C",
"U 	g #414141",
"V 	g #2D2D2D",
"W 	g #C2C2C2",
"X 	g #C4C4C4",
"Y 	g #CDCDCD",
"Z 	g #E0E0E0",
"` 	g #D7D7D7",
" .	g #1E1E1E",
"..	g #2E2E2E",
"+.	g #A8A8A8",
"@.	g #E3E3E3",
"#.	g #202020",
"$.	g #1F1F1F",
"%.	g #2B2B2B",
"&.	g #E1E1E1",
"*.	g #E5E5E5",
"=.	g #1A1A1A",
"-.	g #2F2F2F",
";.	g #E4E4E4",
">.	g #E7E7E7",
",.	g #ABABAB",
"'.	g #E6E6E6",
").	g #E9E9E9",
"!.	g #EBEBEB",
"~.	g #ECECEC",
"{.	g #E8E8E8",
"].	g #EAEAEA",
"^.	g #212121",
"/.	g #303030",
"(.	g #A5A5A5",
"_.	g #B2B2B2",
":.	g #1C1C1C",
"<.	g #222222",
"[.	g #313131",
"}.	g #AEAEAE",
"|.	g #EDEDED",
"1.	g #1D1D1D",
"2.	g #232323",
"3.	g #323232",
"4.	g #EEEEEE",
"5.	g #EFEFEF",
"6.	g #242424",
"7.	g #F0F0F0",
"8.	g #F2F2F2",
"9.	g #F4F4F4",
"0.	g #343434",
"a.	g #A0A0A0",
"b.	g #A1A1A1",
"c.	g #A3A3A3",
"d.	g #F6F6F6",
"e.	g #262626",
"f.	g #F1F1F1",
"g.	g #F8F8F8",
"h.	g #FAFAFA",
"i.	g #FBFBFB",
"j.	g #F7F7F7",
"k.	g #353535",
"l.	g #F3F3F3",
"m.	g #F5F5F5",
"n.	g #363636",
"o.	g #8B8B8B",
"p.	g #373737",
"q.	g #3B3B3B",
"r.	g #3A3A3A",
"s.	g #393939",
"t.	g #383838",
"u.	g #404040",
"v.	g #3E3E3E",
"w.	g #3F3F3F",
"x.	g #939393",
"y.	g #4A4A4A",
"z.	g #7D7D7D",
"A.	g #595959",
"B.	g #757575",
"C.	g #767676",
"D.	g #5A5A5A",
"E.	g #3C3C3C",
"F.	g #737373",
"G.	g #5C5C5C",
"H.	g #606060",
". + @ # $ $ % % % & * * = = = = - - ; ; > > > , , ' ' ' > ) ! ! ",
"+ ~ { ] ^ / ( _ : < [ } | 1 2 3 4 5 6 7 8 9 0 a b c d e 0 f ) ! ",
"g < h i j ( _ : k } l | 1 2 3 m n 6 7 8 o a p q c d e r 9 s } t ",
"u v [ w ( : } | 1 2 3 m 5 6 7 8 o a p b c d x y v z r v 8 / A B ",
"C D E F _ : G G H I J K L M N O ^ P / Q ( R : < [ | v S q T U { ",
"T V + H : [ l W 1 X 3 m 5 6 Y 8 9 0 p q c d e r y z Z A ` )  . .",
"..V . +.k l W 1 2 4 m 5 6 Y 9 o a p q c d x y v z Z A @.e ) #.$.",
"....%.I l 1 1 2 4 5 n 7 Y 9 o a b c ` d x y v S &.A @.*.r =.#.$.",
"..-.%.J W 2 3 4 5 6 7 8 o 0 a b c d e r y z S &.@.;.*.>.y =.#.#.",
"-.-.T ,.X 4 Y 9 0 a b q ` e x y v S &.@.*.'.>.).!.~.{.].v =.^.^.",
"/.-.V K 3 3 (.G H +.J J K L M N O _.P j / ( _ R : } {.~.Z :.<.^.",
"[.[...}.m n 7 Y 9 0 p b q ` e x y z S Z A ;.'.{.{.].~.|.&.1.<.2.",
"3.[...M n Y 9 9 0 p q c d e r y z Z A @.;.'.{.).!.|.4.5.A 1.6.2.",
"3.[.-.N 7 9 o a p q c d x y v z Z A @.*.>.{.).!.|.5.7.8.;. .{ 2.",
"3.C -.O 8 o a b c ` d x y v S &.A @.*.>.).].~.|.5.7.8.9.'. .{ 6.",
"0.C /._.0 o a.b.] c.(.(.H H I J ,.L L M N _.^ P j _ 8.d.>.$.e.{ ",
"0.C [.P p q y v S &.A ;.'.>.).].~.4.7.f.8.9.d.g.h.i.d.j.>.#.e.e.",
"k.k.3.j b ` e x y v S Z A ;.'.'.{.].~.|.5.7.8.l.m.j.d.d.>.^.~ ~ ",
"n.k.0.o.v r v z S &.A @.*.'.{.).!.~.4.5.7.8.8.9.d.m.m.d.: e.~ ~ ",
"p.k.k.0.q.q.q.r.r.r.s.s.t.t.p.p.n.n.k.k.k.0.C C C 3.3.[.+ @ @ @ ",
"p.n.n.k.k.0.0.C C 3.3.[.[.[.[././.-.-...V V T T %.%.. . + . @ + ",
"p.t.n.n.n.n.0.k.0.0.C C 3.[.[.[./.-.-.-...V ..V V T T %.%.. . + ",
"s.t.t.p.p.n.n.n.u.v.v.v.v.v.w.w.u.u.u.u.w.w.E k.n.n.n.p.0.. %.. ",
"s.t.s.p.p.p.n.x.p x Z ].~.l.j.g.d.f.|.'.v b Y y.T T %.%.w.+ %.%.",
"s.s.s.s.p.t.k.a.o t.w.w.z.9.d.j.7.|.{.&.c 8 3 A.-.V ..V E . %.%.",
"r.s.r.s.t.t.k.a.8 -.k.k.B.8.l.f.|.{.*.r b 6 X A.-.....V E %.T T ",
"q.q.r.s.s.t.n.] Y /.p.n.C.f.8.l.5.!.'.v p 6 1 D././...-.E T V T ",
"E.E.r.r.r.r.p.] 7 /.p.n.C.4.4.~.!.{.&.e 0 m W # [././.-.E.T V V ",
"E E.E.q.q.r.p.] m 3.t.t.B.~.~.~.].*.v b 6 X } # [.[.[.-.E.V -.V ",
"E E.E q.q.r.t.c.4 3.s.t.F.'.{.{.*.&.d o m W } G.[.3.[./.E ..-...",
"v.E E E.E.E.t.(.3 + /.-.' &.Z Z z c o 6 X [ } G.3.3.3.[.E.-./.-.",
"  E v.E E E.  N < 2 6 p q a p p a o Y 3 | k l H.0.C C 3.E /.[./."};
