/* XPM */
static const char * xicon_xpm[] = {
"32 32 235 2",
"  	c None",
". 	c #A1A3A1",
"+ 	c #8B8D8C",
"@ 	c #818281",
"# 	c #9A9C9A",
"$ 	c #0C100D",
"% 	c #202320",
"& 	c #8D8E8D",
"* 	c #7F817F",
"= 	c #1C201C",
"- 	c #1D211E",
"; 	c #9D9F9E",
"> 	c #0F1410",
", 	c #1B1F1C",
"' 	c #1A1E1B",
") 	c #222623",
"! 	c #8C8D8C",
"~ 	c #7A7D7B",
"{ 	c #202421",
"] 	c #1A1F1B",
"^ 	c #181D19",
"/ 	c #1E221F",
"( 	c #999B9A",
"_ 	c #080D09",
": 	c #161A17",
"< 	c #131915",
"[ 	c #212522",
"} 	c #868786",
"| 	c #757876",
"1 	c #141815",
"2 	c #1B201C",
"3 	c #131814",
"4 	c #161A16",
"5 	c #969896",
"6 	c #0C110D",
"7 	c #171B18",
"8 	c #161B17",
"9 	c #0E130F",
"0 	c #1F2420",
"a 	c #808180",
"b 	c #717472",
"c 	c #1D221E",
"d 	c #171C18",
"e 	c #0A0F0B",
"f 	c #858685",
"g 	c #0C120D",
"h 	c #131714",
"i 	c #1F2320",
"j 	c #7C7F7D",
"k 	c #6D706E",
"l 	c #141714",
"m 	c #0D120E",
"n 	c #161917",
"o 	c #6A6B6A",
"p 	c #767776",
"q 	c #191D1A",
"r 	c #101511",
"s 	c #101411",
"t 	c #060B07",
"u 	c #202521",
"v 	c #7B7E7C",
"w 	c #6A6C6A",
"x 	c #050B07",
"y 	c #101512",
"z 	c #171B17",
"A 	c #626362",
"B 	c #7B7D7C",
"C 	c #141A15",
"D 	c #050A06",
"E 	c #020703",
"F 	c #212622",
"G 	c #656866",
"H 	c #1E211E",
"I 	c #030703",
"J 	c #151916",
"K 	c #676867",
"L 	c #727472",
"M 	c #1C201D",
"N 	c #010602",
"O 	c #0B100C",
"P 	c #000400",
"Q 	c #212421",
"R 	c #717271",
"S 	c #626563",
"T 	c #202220",
"U 	c #0B110D",
"V 	c #030804",
"W 	c #686A68",
"X 	c #797A79",
"Y 	c #181C18",
"Z 	c #0A0E0A",
"` 	c #090E0A",
" .	c #000100",
"..	c #232523",
"+.	c #707271",
"@.	c #616361",
"#.	c #212221",
"$.	c #161916",
"%.	c #5E5F5E",
"&.	c #6C6D6C",
"*.	c #1F221E",
"=.	c #0A0D09",
"-.	c #0A0C08",
";.	c #0A0C09",
">.	c #000000",
",.	c #272A27",
"'.	c #636562",
").	c #242524",
"!.	c #090D09",
"~.	c #010400",
"{.	c #1B1E1A",
"].	c #575857",
"^.	c #707170",
"/.	c #1E1F1E",
"(.	c #030502",
"_.	c #030602",
":.	c #090C08",
"<.	c #000200",
"[.	c #1A1B19",
"}.	c #5D5E5D",
"|.	c #696A69",
"1.	c #262625",
"2.	c #090B08",
"3.	c #0A0B09",
"4.	c #1D1D1C",
"5.	c #666665",
"6.	c #6D6D6D",
"7.	c #030302",
"8.	c #0A0A09",
"9.	c #090A09",
"0.	c #040403",
"a.	c #1E1F1D",
"b.	c #5F5F5E",
"c.	c #5A5A59",
"d.	c #171717",
"e.	c #0A0909",
"f.	c #050504",
"g.	c #171716",
"h.	c #484847",
"i.	c #565656",
"j.	c #151414",
"k.	c #040404",
"l.	c #050404",
"m.	c #141414",
"n.	c #605F5F",
"o.	c #626262",
"p.	c #232323",
"q.	c #020101",
"r.	c #090909",
"s.	c #272727",
"t.	c #6F6E6E",
"u.	c #646364",
"v.	c #201F1F",
"w.	c #0A0809",
"x.	c #090808",
"y.	c #090708",
"z.	c #222222",
"A.	c #737373",
"B.	c #666565",
"C.	c #1E1D1E",
"D.	c #0A0709",
"E.	c #050304",
"F.	c #030102",
"G.	c #222121",
"H.	c #757474",
"I.	c #686768",
"J.	c #1B1B1B",
"K.	c #1F1D1E",
"L.	c #514F50",
"M.	c #1F1E1E",
"N.	c #757475",
"O.	c #6B6A6A",
"P.	c #191819",
"Q.	c #010000",
"R.	c #1C1B1B",
"S.	c #5E5E5E",
"T.	c #696869",
"U.	c #787878",
"V.	c #6D6C6D",
"W.	c #161616",
"X.	c #020001",
"Y.	c #161415",
"Z.	c #676666",
"`.	c #1F1F1F",
" +	c #181818",
".+	c #7E7E7E",
"++	c #6E6D6D",
"@+	c #141314",
"#+	c #171617",
"$+	c #656565",
"%+	c #212121",
"&+	c #807F7F",
"*+	c #706F70",
"=+	c #111010",
"-+	c #040203",
";+	c #141213",
">+	c #717070",
",+	c #6A696A",
"'+	c #1D1C1C",
")+	c #121212",
"!+	c #7F7E7F",
"~+	c #6E6D6E",
"{+	c #0F0E0F",
"]+	c #151314",
"^+	c #676767",
"/+	c #777576",
"(+	c #1D1D1D",
"_+	c #0A0708",
":+	c #0F0F0F",
"<+	c #7E7D7E",
"[+	c #0E0C0E",
"}+	c #0B090A",
"|+	c #100E0F",
"1+	c #656564",
"2+	c #9B9A9B",
"3+	c #787778",
"4+	c #030101",
"5+	c #0A0808",
"6+	c #020102",
"7+	c #7A7A7A",
"8+	c #929292",
"9+	c #020202",
"0+	c #060405",
"a+	c #0F0D0E",
"b+	c #737273",
"c+	c #121112",
"d+	c #040304",
"e+	c #767676",
"f+	c #999899",
"g+	c #0A0A0A",
"h+	c #6A6A6A",
"i+	c #818080",
"j+	c #101010",
"k+	c #7E7D7D",
"l+	c #6F6F6F",
"                                                                ",
"        . +                                       @             ",
"      # $ % &                                   * = -           ",
"    ; > , ' ) !                               ~ { ] ^ /         ",
"  ( _ : ] ' < [ }                           | / 1 ' 2 3 4 5     ",
"  , 6 7 : : 8 9 0 a                       b c > 8 : : d e )     ",
"  f 8 g h h h h e i j                   k - e l h h h m n o     ",
"    p q _ r s s r t u v               w - x y s s r e z A       ",
"      B C D m m m m E F |           G H I 9 m m m t J K         ",
"        L M N O e e O P Q R       S T P U e e O V 7 W           ",
"          X Y P Z ` ` Z  ...+.  @.#. .e ` Z ` N $.%.            ",
"            &.*. .=.-.;.=.>.,.'.).>.Z ;.-.!.~.{.].              ",
"              ^./.>.;.;.;.=.(.>._.=.-.;.:.<.[.}.                ",
"                |.1.>.2.3.3.3.2.2.3.3.2. .4.5.                  ",
"                  6.).7.8.9.8.8.8.8.8.0.a.b.                    ",
"                    c.d.0.8.e.e.e.8.f.g.h.                      ",
"                    i.j.k.e.e.e.e.e.l.m.n.                      ",
"                  o.p.q.e.r.e.e.e.e.e.q.s.t.                    ",
"                u.v.>.e.w.w.x.y.x.w.w.w.>.z.A.                  ",
"              B.C.>.w.D.w.w.E.>.F.w.w.w.w.>.G.H.                ",
"            I.J.>.w.w.w.y.>.K.L.G.>.w.w.w.w.>.M.N.              ",
"          O.P.Q.w.w.w.y.>.R.S.  T.s.>.w.w.w.w.>.J.U.            ",
"        V.W.X.w.w.w.y.Q.Y.B.      Z.`.>.w.w.w.w.Q. +.+          ",
"      ++@+F.w.w.w.y.X.#+$+          V.%+>.w.w.w.w.Q.W.&+        ",
"    *+=+-+w.w.w.y.X.;+>+              ,+'+>.w.w.w.w.X.)+!+      ",
"  ~+{+E.w.w.w.y.F.]+^+                  /+(+>._+w.w.y.-+:+<+    ",
"  [+>.}+y.w.y.F.|+1+                      ++W.X.w.w.y.}+>.@+    ",
"  2+>.F.w.y.-+=+6.                          3+W.4+5+w.-+6+7+    ",
"    8+9+-+0+a+B.                              b+c+E.-+d+e+      ",
"      f+>.g+h+                                  i+j+>.k+        ",
"        8+o.                                      l+!+          ",
"                                                                "};
